<svg xmlns="http://www.w3.org/2000/svg" xmlns:xlink="http://www.w3.org/1999/xlink" width="260" zoomAndPan="magnify" viewBox="0 0 194.87999 44.999999" height="60" preserveAspectRatio="xMidYMid meet" version="1.0"><defs><g/><clipPath id="id1"><path d="M 5 3 L 43.566406 3 L 43.566406 42 L 5 42 Z M 5 3 " clip-rule="nonzero"/></clipPath></defs><g clip-path="url(#id1)"><path fill="#ffffff" d="M 27.300781 35.265625 C 27.300781 35.246094 27.3125 35.230469 27.3125 35.222656 M 42.847656 26.191406 C 42.824219 26.226562 42.796875 26.253906 42.773438 26.285156 M 15.589844 18.929688 C 15.582031 18.921875 15.582031 18.921875 15.574219 18.914062 M 15.734375 7.730469 C 15.722656 7.722656 15.714844 7.714844 15.707031 7.699219 M 15.707031 7.699219 C 15.699219 7.683594 15.683594 7.65625 15.664062 7.640625 M 23.996094 18.777344 C 23.980469 18.835938 23.960938 18.886719 23.9375 18.914062 C 23.960938 18.796875 23.980469 18.761719 23.996094 18.777344 Z M 41.917969 15.894531 C 42.5625 17.894531 42.914062 20.046875 42.914062 22.292969 C 42.914062 23.730469 42.765625 25.125 42.496094 26.480469 C 40.941406 28.058594 39.222656 29.472656 37.382812 30.699219 L 37.382812 30.707031 C 37.464844 30.480469 37.542969 30.277344 37.589844 30.144531 C 37.726562 29.75 38.019531 28.175781 37.425781 28.175781 C 35.773438 28.175781 35.699219 28.597656 35.398438 28.640625 C 34.855469 28.707031 36.445312 27.460938 33.480469 28.386719 C 33.480469 27.320312 34.007812 26.90625 32.601562 26.410156 C 32.609375 26.421875 32.617188 26.421875 32.625 26.421875 C 32.710938 25.242188 32.753906 24.015625 32.753906 22.761719 C 32.753906 18.140625 32.15625 13.902344 31.171875 10.648438 C 30.777344 9.378906 30.332031 8.253906 29.839844 7.320312 C 30.015625 7.007812 30.351562 6.65625 29.503906 5.949219 C 29.285156 5.5625 28.867188 5.503906 28.449219 5.160156 C 28.25 5 26.84375 4.53125 26.597656 4.65625 C 25 5.503906 25.015625 4.4375 23.769531 5.789062 C 23.636719 5.933594 23.042969 6.808594 23.042969 6.96875 C 23.066406 7.941406 22.261719 7.757812 21.550781 7.832031 C 20.789062 7.917969 21.097656 7.816406 20.597656 7.414062 C 20.203125 7.09375 20.144531 6.949219 19.601562 6.714844 C 18.597656 6.296875 19.601562 5.839844 18.445312 5.226562 C 18.195312 5.101562 17.308594 5.363281 17.25 5.632812 C 17.097656 5.269531 16.738281 6.226562 16.027344 6.058594 C 15.96875 6.050781 15.976562 5.984375 16.035156 5.910156 C 18.679688 3.460938 29.109375 2.722656 33.800781 5.5625 C 28.324219 2.445312 21.542969 2.257812 15.898438 5.058594 C 9.585938 8.195312 5.242188 14.734375 5.242188 22.292969 C 5.242188 32.902344 13.808594 41.5 24.371094 41.5 C 25.023438 41.5 25.671875 41.476562 26.304688 41.410156 C 5.914062 42.730469 -1.355469 16.703125 15.230469 6.378906 C 15.148438 6.773438 15.304688 7.078125 15.664062 7.640625 C 15.664062 7.632812 15.65625 7.621094 15.65625 7.613281 C 10.515625 10.851562 7.101562 16.59375 7.101562 23.132812 C 7.101562 29.773438 10.617188 35.589844 15.882812 38.792969 C 14.359375 37.828125 12.988281 36.625 11.816406 35.238281 C 12.8125 35.507812 13.824219 35.71875 14.855469 35.878906 C 14.792969 35.800781 14.746094 35.726562 14.6875 35.652344 C 15.398438 36.683594 16.203125 37.601562 17.089844 38.390625 C 16.328125 37.660156 15.632812 36.828125 15.019531 35.910156 C 16.570312 36.144531 18.167969 36.273438 19.785156 36.273438 C 20.378906 36.273438 20.964844 36.257812 21.550781 36.222656 C 21.507812 36.113281 21.46875 36.003906 21.433594 35.886719 C 21 35.910156 20.570312 35.917969 20.136719 35.917969 C 18.285156 35.917969 16.476562 35.75 14.71875 35.449219 C 13.289062 33.136719 12.351562 30.328125 12.082031 27.261719 C 14.519531 28.125 17.128906 28.605469 19.851562 28.640625 L 19.84375 28.621094 C 20.714844 35.96875 23.148438 41.292969 26.039062 41.410156 C 24.363281 41.332031 22.855469 39.367188 21.742188 36.214844 C 23.644531 36.089844 25.492188 35.800781 27.292969 35.355469 L 27.292969 35.347656 C 27.175781 36.523438 26.949219 36.785156 26.382812 37.84375 C 26.304688 37.980469 26.363281 38.046875 26.339844 38.089844 C 26.480469 37.996094 26.480469 38.332031 26.480469 38.410156 C 26.480469 39.804688 26.078125 39.03125 26.078125 39.578125 C 26.078125 39.945312 27.328125 40.339844 27.570312 40.308594 C 26.726562 39.398438 29.839844 38.238281 30.476562 38.039062 C 31.035156 37.863281 30.542969 37.585938 31.714844 37.207031 C 31.796875 37.171875 32.433594 36.257812 33.164062 36.222656 C 33.386719 36.207031 35.589844 33.363281 36.152344 32.960938 C 36.503906 32.699219 36.980469 31.691406 37.296875 30.910156 L 37.289062 30.917969 C 39.179688 29.65625 40.929688 28.1875 42.511719 26.546875 C 42.496094 26.5625 42.488281 26.578125 42.472656 26.597656 C 41.625 30.625 39.632812 34.179688 36.871094 36.84375 C 40.085938 34.054688 42.371094 30.203125 43.183594 25.839844 C 43.191406 25.808594 43.199219 25.765625 43.199219 25.730469 C 43.402344 24.613281 43.511719 23.46875 43.511719 22.292969 C 43.511719 19.847656 43.058594 17.5 42.21875 15.347656 C 42.171875 15.214844 42.121094 15.078125 42.0625 14.945312 C 40.90625 12.15625 39.113281 9.683594 36.871094 7.742188 C 39.046875 9.835938 40.746094 12.492188 41.785156 15.492188 C 39.875 19.046875 37.15625 22.089844 33.882812 24.351562 C 37.1875 22.199219 39.960938 19.285156 41.945312 15.84375 C 41.9375 15.863281 41.929688 15.878906 41.917969 15.894531 Z M 37.382812 30.707031 C 37.367188 30.742188 37.355469 30.773438 37.339844 30.808594 C 37.355469 30.773438 37.367188 30.742188 37.382812 30.707031 Z M 37.339844 30.808594 C 37.332031 30.824219 37.324219 30.84375 37.324219 30.859375 C 37.324219 30.84375 37.332031 30.824219 37.339844 30.808594 Z M 37.324219 30.859375 C 37.316406 30.875 37.308594 30.890625 37.296875 30.910156 C 37.308594 30.894531 37.316406 30.875 37.324219 30.859375 Z M 42.515625 26.546875 C 42.546875 26.519531 42.574219 26.488281 42.597656 26.460938 C 42.574219 26.488281 42.546875 26.519531 42.515625 26.546875 Z M 42.597656 26.460938 C 42.65625 26.402344 42.714844 26.34375 42.765625 26.285156 C 42.714844 26.34375 42.65625 26.402344 42.597656 26.460938 Z M 42.855469 26.191406 C 42.882812 26.167969 42.90625 26.132812 42.933594 26.109375 C 42.90625 26.132812 42.882812 26.167969 42.855469 26.191406 Z M 42.941406 26.109375 C 42.964844 26.074219 42.992188 26.050781 43.015625 26.015625 C 42.992188 26.050781 42.964844 26.074219 42.941406 26.109375 Z M 43.015625 26.015625 C 43.050781 25.984375 43.074219 25.957031 43.101562 25.925781 C 43.074219 25.957031 43.050781 25.984375 43.015625 26.015625 Z M 43.101562 25.925781 C 43.132812 25.898438 43.160156 25.867188 43.183594 25.839844 C 43.160156 25.867188 43.132812 25.898438 43.101562 25.925781 Z M 14.6875 35.652344 C 14.644531 35.589844 14.609375 35.53125 14.570312 35.464844 C 14.609375 35.53125 14.644531 35.59375 14.6875 35.652344 Z M 14.570312 35.464844 C 14.550781 35.449219 14.542969 35.433594 14.527344 35.40625 C 13.449219 35.214844 12.375 34.960938 11.335938 34.652344 C 9.269531 31.984375 7.914062 28.707031 7.578125 25.117188 C 8.867188 25.90625 10.234375 26.570312 11.664062 27.109375 C 11.65625 26.976562 11.640625 26.839844 11.628906 26.699219 C 10.199219 26.152344 8.835938 25.480469 7.535156 24.679688 C 7.503906 24.234375 7.488281 23.789062 7.488281 23.335938 C 7.488281 20.433594 8.148438 17.695312 9.320312 15.265625 C 10.410156 16.289062 11.621094 17.164062 12.953125 17.855469 C 12.960938 17.828125 12.980469 17.796875 12.996094 17.761719 C 11.679688 17.03125 10.484375 16.113281 9.429688 15.046875 C 10.902344 12.101562 13.121094 9.632812 15.84375 7.898438 C 15.859375 7.925781 15.875 7.949219 15.890625 7.976562 C 16.042969 8.210938 16.4375 9.011719 16.292969 9.296875 C 15.574219 10.699219 16.292969 11.328125 15.523438 12.113281 C 15.140625 12.5 14.769531 13.324219 14.769531 13.917969 C 14.769531 14.164062 14.753906 14.363281 14.738281 14.53125 C 12.761719 17.390625 11.574219 21.082031 11.574219 25.125 C 11.570312 29.042969 12.695312 32.648438 14.570312 35.464844 Z M 27.328125 35.078125 C 25.484375 35.515625 23.578125 35.785156 21.625 35.878906 C 20.957031 33.859375 20.4375 31.390625 20.144531 28.640625 C 21.667969 28.640625 23.167969 28.496094 24.617188 28.226562 C 24.457031 28.648438 24.195312 29.042969 23.945312 29.304688 C 23.402344 29.882812 24.019531 31.605469 24.722656 32.164062 C 25.496094 32.777344 25.359375 33.238281 26.433594 33.609375 C 27.386719 33.933594 27.394531 34.421875 27.328125 35.078125 Z M 27.292969 35.347656 C 27.292969 35.324219 27.300781 35.289062 27.300781 35.265625 C 27.300781 35.289062 27.292969 35.324219 27.292969 35.347656 Z M 24.699219 27.957031 C 23.316406 28.195312 21.894531 28.320312 20.445312 28.320312 C 20.335938 28.320312 20.230469 28.320312 20.109375 28.320312 C 19.976562 26.925781 19.894531 25.46875 19.867188 23.964844 C 20.035156 24.042969 20.1875 24.125 20.246094 24.191406 C 20.414062 24.210938 21.460938 24.765625 21.535156 24.90625 C 22.246094 26.300781 22.847656 25.839844 23.359375 26.589844 C 23.621094 26.984375 25.050781 27.21875 23.988281 26.714844 C 23.9375 26.6875 23.921875 26.640625 23.902344 26.597656 C 22.925781 26.226562 22.75 25.167969 22.800781 24.167969 C 22.859375 23.015625 20.464844 24.117188 21.578125 22.257812 C 22.035156 21.503906 21.390625 21.066406 20.582031 21.8125 C 19.859375 22.460938 18.730469 21.820312 18.761719 20.90625 C 18.847656 18.054688 20.613281 19.972656 21.859375 18.828125 C 22.566406 18.191406 23.101562 19.601562 23.410156 19.988281 C 23.585938 20.214844 23.503906 20.609375 24.078125 20.609375 C 24.078125 20.601562 24.078125 18.863281 23.996094 18.777344 C 24.070312 18.476562 24.136719 17.855469 25 17.578125 C 26.121094 17.214844 24.230469 15.753906 25.46875 15.59375 C 26.625 15.441406 28.859375 13.070312 26.492188 13.070312 C 26.339844 13.070312 26.332031 12.53125 26.882812 12.464844 C 27.4375 12.398438 29.519531 12.558594 28.792969 11.589844 C 28.535156 11.253906 28.164062 11.398438 27.429688 10.1875 C 27.035156 9.53125 26.425781 10.523438 25.703125 9.515625 C 25.285156 8.941406 24.441406 9.386719 24.65625 10.464844 C 24.773438 11.078125 24.238281 11.1875 24.265625 11.785156 C 24.265625 11.800781 24.003906 12.53125 23.804688 11.691406 C 23.445312 10.171875 22.789062 10.625 21.761719 10.507812 C 21.46875 9.925781 22.339844 9.261719 22.882812 9.035156 C 23.277344 8.875 23.257812 8.230469 24.464844 8.261719 C 24.898438 8.277344 24.171875 7.597656 25.175781 7.808594 C 25.460938 8.640625 24.332031 8.472656 25.980469 9.238281 C 25.980469 9.238281 26.65625 9.824219 26.597656 9.238281 C 26.523438 8.4375 27.695312 8.289062 25.996094 7.394531 C 25.519531 7.152344 25.042969 6.859375 25.042969 6.320312 C 25.042969 6.058594 25.210938 5.378906 25.652344 6.015625 C 26.148438 6.730469 26.28125 5.640625 26.609375 6.875 C 26.902344 8.019531 28.339844 8.210938 29.085938 8.808594 C 29.320312 8.992188 29.578125 9.289062 29.929688 9.21875 C 29.957031 9.160156 29.988281 9.101562 30.023438 9.050781 C 30.191406 9.421875 30.339844 9.824219 30.492188 10.238281 C 31.671875 13.53125 32.402344 18.15625 32.402344 23.269531 C 32.402344 24.328125 32.367188 25.351562 32.308594 26.351562 C 32.324219 26.363281 32.335938 26.363281 32.34375 26.363281 C 32.042969 26.351562 31.238281 26.363281 31.113281 26.363281 C 30.398438 24.921875 27.175781 24.914062 26.792969 25.519531 C 26.597656 25.832031 23.769531 24.832031 24.664062 27.015625 C 24.78125 27.304688 24.773438 27.628906 24.699219 27.957031 Z M 19.84375 28.621094 C 19.835938 28.523438 19.828125 28.421875 19.808594 28.3125 C 17.097656 28.246094 14.484375 27.738281 12.050781 26.855469 C 12.023438 26.410156 12.007812 25.957031 12.007812 25.496094 C 12.007812 22.832031 12.519531 20.316406 13.429688 18.097656 C 14.125 18.433594 14.855469 18.71875 15.597656 18.957031 C 15.597656 18.945312 15.589844 18.9375 15.589844 18.929688 C 15.722656 19.199219 15.859375 19.308594 16.09375 19.769531 C 16.460938 20.492188 16.351562 21.578125 16.394531 21.664062 C 16.453125 21.773438 17.875 23.023438 17.992188 23.101562 C 18.664062 23.503906 18.246094 23.578125 19.367188 23.78125 C 19.40625 23.78125 19.457031 23.796875 19.523438 23.824219 C 19.558594 25.488281 19.667969 27.101562 19.84375 28.621094 Z M 15.574219 18.914062 C 15.574219 18.90625 15.574219 18.90625 15.574219 18.90625 C 14.84375 18.652344 14.140625 18.359375 13.464844 18.011719 C 13.664062 17.515625 13.890625 17.046875 14.132812 16.585938 C 14.132812 16.585938 14.132812 16.585938 14.132812 16.574219 C 14.132812 16.601562 14.132812 16.617188 14.132812 16.632812 C 14.132812 18.046875 15.28125 17.054688 15.230469 18.03125 C 15.222656 18.15625 15.289062 18.199219 15.339844 18.300781 C 15.429688 18.59375 15.507812 18.769531 15.574219 18.914062 Z M 14.132812 16.566406 C 14.132812 16.550781 14.132812 16.542969 14.132812 16.527344 C 14.132812 16.542969 14.132812 16.550781 14.132812 16.566406 Z M 14.132812 16.507812 C 14.132812 16.492188 14.132812 16.484375 14.132812 16.476562 C 14.132812 16.484375 14.132812 16.492188 14.132812 16.507812 Z M 14.132812 16.449219 C 14.132812 16.441406 14.132812 16.433594 14.132812 16.417969 C 14.132812 16.433594 14.132812 16.441406 14.132812 16.449219 Z M 14.140625 16.398438 C 14.140625 16.390625 14.140625 16.375 14.140625 16.367188 C 14.140625 16.375 14.140625 16.390625 14.140625 16.398438 Z M 14.140625 16.347656 C 14.140625 16.332031 14.140625 16.324219 14.140625 16.308594 C 14.140625 16.324219 14.140625 16.332031 14.140625 16.347656 Z M 14.152344 16.296875 C 14.152344 16.289062 14.152344 16.273438 14.152344 16.257812 C 14.152344 16.273438 14.152344 16.289062 14.152344 16.296875 Z M 14.152344 16.25 C 14.152344 16.230469 14.160156 16.222656 14.160156 16.214844 C 14.160156 16.222656 14.152344 16.230469 14.152344 16.25 Z M 14.160156 16.199219 C 14.160156 16.1875 14.160156 16.179688 14.167969 16.171875 C 14.160156 16.179688 14.160156 16.1875 14.160156 16.199219 Z M 14.167969 16.15625 C 14.167969 16.148438 14.167969 16.140625 14.167969 16.128906 C 14.167969 16.140625 14.167969 16.148438 14.167969 16.15625 Z M 14.175781 16.113281 C 14.175781 16.105469 14.175781 16.097656 14.175781 16.089844 C 14.175781 16.097656 14.175781 16.105469 14.175781 16.113281 Z M 14.183594 16.082031 C 14.183594 16.0625 14.183594 16.054688 14.191406 16.039062 C 14.183594 16.054688 14.183594 16.0625 14.183594 16.082031 Z M 14.191406 16.03125 C 14.191406 16.019531 14.191406 16.011719 14.199219 16.003906 C 14.191406 16.011719 14.191406 16.019531 14.191406 16.03125 Z M 14.199219 15.996094 C 14.199219 15.988281 14.199219 15.980469 14.210938 15.972656 C 14.199219 15.980469 14.199219 15.988281 14.199219 15.996094 Z M 14.210938 15.953125 C 14.210938 15.945312 14.21875 15.945312 14.21875 15.9375 C 14.21875 15.945312 14.210938 15.945312 14.210938 15.953125 Z M 14.21875 15.921875 C 14.226562 15.910156 14.226562 15.902344 14.226562 15.902344 C 14.226562 15.902344 14.226562 15.910156 14.21875 15.921875 Z M 14.234375 15.886719 C 14.234375 15.878906 14.234375 15.871094 14.242188 15.863281 C 14.234375 15.871094 14.234375 15.878906 14.234375 15.886719 Z M 14.242188 15.851562 C 14.242188 15.84375 14.25 15.835938 14.25 15.828125 C 14.25 15.835938 14.242188 15.84375 14.242188 15.851562 Z M 14.257812 15.820312 C 14.257812 15.8125 14.257812 15.804688 14.269531 15.792969 C 14.257812 15.804688 14.257812 15.8125 14.257812 15.820312 Z M 14.269531 15.785156 C 14.269531 15.777344 14.277344 15.777344 14.277344 15.769531 C 14.277344 15.777344 14.269531 15.777344 14.269531 15.785156 Z M 14.285156 15.761719 C 14.285156 15.753906 14.285156 15.742188 14.285156 15.734375 C 14.285156 15.742188 14.285156 15.753906 14.285156 15.761719 Z M 14.292969 15.726562 C 14.292969 15.71875 14.300781 15.710938 14.300781 15.703125 C 14.300781 15.710938 14.292969 15.71875 14.292969 15.726562 Z M 14.300781 15.703125 C 14.308594 15.695312 14.308594 15.683594 14.316406 15.675781 C 14.308594 15.683594 14.308594 15.695312 14.300781 15.703125 Z M 14.316406 15.667969 C 14.328125 15.660156 14.328125 15.652344 14.335938 15.644531 C 14.328125 15.652344 14.328125 15.660156 14.316406 15.667969 Z M 14.335938 15.632812 C 14.335938 15.632812 14.34375 15.625 14.34375 15.617188 C 14.34375 15.625 14.335938 15.632812 14.335938 15.632812 Z M 14.351562 15.609375 C 14.351562 15.601562 14.351562 15.601562 14.359375 15.59375 C 14.351562 15.601562 14.351562 15.601562 14.351562 15.609375 Z M 14.359375 15.585938 C 14.367188 15.574219 14.367188 15.566406 14.367188 15.566406 C 14.367188 15.566406 14.367188 15.574219 14.359375 15.585938 Z M 14.375 15.558594 C 14.375 15.550781 14.386719 15.542969 14.394531 15.535156 C 14.386719 15.542969 14.375 15.550781 14.375 15.558594 Z M 14.394531 15.523438 C 14.394531 15.523438 14.402344 15.515625 14.402344 15.507812 C 14.402344 15.515625 14.394531 15.523438 14.394531 15.523438 Z M 14.460938 15.398438 C 14.460938 15.398438 14.460938 15.390625 14.46875 15.390625 C 14.460938 15.390625 14.460938 15.398438 14.460938 15.398438 Z M 14.476562 15.367188 C 14.476562 15.367188 14.476562 15.355469 14.484375 15.355469 C 14.476562 15.355469 14.476562 15.367188 14.476562 15.367188 Z M 14.492188 15.339844 L 14.492188 15.332031 Z M 14.503906 15.316406 C 14.511719 15.308594 14.511719 15.308594 14.511719 15.296875 C 14.511719 15.308594 14.511719 15.308594 14.503906 15.316406 Z M 14.519531 15.28125 L 14.527344 15.273438 Z M 14.535156 15.246094 Z M 14.550781 15.214844 C 14.550781 15.214844 14.550781 15.214844 14.550781 15.207031 C 14.550781 15.214844 14.550781 15.214844 14.550781 15.214844 Z M 14.570312 15.179688 C 14.570312 15.179688 14.570312 15.179688 14.570312 15.171875 C 14.570312 15.179688 14.570312 15.179688 14.570312 15.179688 Z M 14.578125 15.15625 C 14.578125 15.148438 14.578125 15.148438 14.585938 15.136719 C 14.578125 15.148438 14.578125 15.148438 14.578125 15.15625 Z M 14.59375 15.121094 C 14.59375 15.113281 14.59375 15.113281 14.59375 15.105469 C 14.59375 15.113281 14.59375 15.113281 14.59375 15.121094 Z M 14.601562 15.089844 C 14.601562 15.078125 14.609375 15.078125 14.609375 15.070312 C 14.609375 15.078125 14.601562 15.078125 14.601562 15.089844 Z M 14.621094 15.046875 C 14.621094 15.046875 14.621094 15.046875 14.621094 15.039062 C 14.621094 15.046875 14.621094 15.046875 14.621094 15.046875 Z M 14.636719 15.003906 L 14.636719 14.996094 Z M 14.644531 14.96875 C 14.644531 14.960938 14.644531 14.960938 14.644531 14.953125 C 14.644531 14.960938 14.644531 14.960938 14.644531 14.96875 Z M 14.652344 14.929688 C 14.652344 14.929688 14.660156 14.921875 14.660156 14.910156 C 14.660156 14.921875 14.652344 14.929688 14.652344 14.929688 Z M 14.667969 14.886719 L 14.667969 14.878906 Z M 14.679688 14.84375 L 14.679688 14.835938 Z M 14.6875 14.792969 C 14.6875 14.785156 14.695312 14.785156 14.695312 14.785156 C 14.695312 14.785156 14.6875 14.785156 14.6875 14.792969 Z M 14.703125 14.742188 L 14.703125 14.734375 Z M 14.710938 14.703125 C 14.710938 14.691406 14.710938 14.691406 14.710938 14.683594 C 14.710938 14.691406 14.710938 14.691406 14.710938 14.703125 Z M 14.71875 14.652344 C 14.71875 14.652344 14.71875 14.640625 14.71875 14.632812 C 14.71875 14.640625 14.71875 14.652344 14.71875 14.652344 Z M 14.726562 14.601562 C 14.726562 14.59375 14.726562 14.59375 14.726562 14.582031 C 14.726562 14.59375 14.726562 14.59375 14.726562 14.601562 Z M 15.75 7.765625 C 15.75 7.757812 15.742188 7.75 15.734375 7.730469 C 15.742188 7.75 15.75 7.757812 15.75 7.765625 Z M 32.351562 26.363281 L 32.359375 26.363281 Z M 32.367188 26.363281 L 32.375 26.363281 Z M 32.375 26.363281 C 32.382812 26.363281 32.394531 26.363281 32.394531 26.363281 C 32.394531 26.363281 32.382812 26.363281 32.375 26.363281 Z M 32.394531 26.363281 C 32.402344 26.363281 32.402344 26.363281 32.410156 26.363281 C 32.402344 26.363281 32.402344 26.363281 32.394531 26.363281 Z M 32.410156 26.363281 L 32.417969 26.363281 Z M 32.417969 26.363281 C 32.425781 26.363281 32.425781 26.363281 32.425781 26.363281 C 32.425781 26.363281 32.425781 26.363281 32.417969 26.363281 Z M 32.425781 26.363281 C 32.433594 26.363281 32.433594 26.363281 32.441406 26.363281 C 32.433594 26.363281 32.433594 26.363281 32.425781 26.363281 Z M 32.441406 26.363281 C 32.441406 26.363281 32.441406 26.363281 32.453125 26.363281 C 32.441406 26.363281 32.441406 26.363281 32.441406 26.363281 Z M 32.453125 26.363281 Z M 32.453125 26.363281 C 32.460938 26.363281 32.460938 26.363281 32.460938 26.363281 C 32.460938 26.363281 32.460938 26.363281 32.453125 26.363281 Z M 32.460938 26.363281 Z M 32.460938 26.363281 C 32.484375 26.371094 32.507812 26.378906 32.535156 26.386719 C 32.511719 26.378906 32.484375 26.371094 32.460938 26.363281 Z M 32.535156 26.386719 C 32.558594 26.394531 32.585938 26.402344 32.601562 26.410156 C 32.585938 26.402344 32.558594 26.394531 32.535156 26.386719 Z M 29.824219 7.722656 C 29.839844 7.742188 29.847656 7.757812 29.855469 7.773438 C 29.847656 7.757812 29.839844 7.742188 29.824219 7.722656 Z M 29.863281 7.78125 C 29.871094 7.792969 29.882812 7.808594 29.890625 7.816406 C 29.882812 7.808594 29.871094 7.792969 29.863281 7.78125 Z M 29.898438 7.832031 C 29.90625 7.839844 29.914062 7.851562 29.914062 7.859375 C 29.914062 7.851562 29.90625 7.839844 29.898438 7.832031 Z M 29.929688 7.875 C 29.941406 7.882812 29.941406 7.890625 29.949219 7.902344 C 29.941406 7.890625 29.941406 7.882812 29.929688 7.875 Z M 29.957031 7.917969 C 29.964844 7.925781 29.972656 7.941406 29.980469 7.949219 C 29.972656 7.941406 29.964844 7.925781 29.957031 7.917969 Z M 29.980469 7.960938 C 29.988281 7.96875 30 7.976562 30.007812 7.992188 C 30 7.976562 29.988281 7.96875 29.980469 7.960938 Z M 30.015625 8 C 30.023438 8.007812 30.023438 8.019531 30.03125 8.027344 C 30.023438 8.019531 30.023438 8.007812 30.015625 8 Z M 30.039062 8.042969 C 30.039062 8.050781 30.046875 8.058594 30.046875 8.070312 C 30.046875 8.058594 30.039062 8.050781 30.039062 8.042969 Z M 30.058594 8.078125 C 30.066406 8.085938 30.066406 8.09375 30.074219 8.101562 C 30.066406 8.09375 30.066406 8.085938 30.058594 8.078125 Z M 30.082031 8.109375 C 30.082031 8.128906 30.089844 8.136719 30.097656 8.144531 C 30.089844 8.136719 30.082031 8.128906 30.082031 8.109375 Z M 30.097656 8.152344 C 30.105469 8.160156 30.105469 8.167969 30.117188 8.175781 C 30.105469 8.167969 30.105469 8.160156 30.097656 8.152344 Z M 30.125 8.195312 C 30.125 8.195312 30.125 8.203125 30.132812 8.210938 C 30.125 8.203125 30.125 8.195312 30.125 8.195312 Z M 30.140625 8.21875 C 30.140625 8.230469 30.140625 8.238281 30.148438 8.246094 C 30.140625 8.238281 30.140625 8.226562 30.140625 8.21875 Z M 30.148438 8.253906 C 30.15625 8.261719 30.15625 8.269531 30.15625 8.277344 C 30.15625 8.269531 30.15625 8.261719 30.148438 8.253906 Z M 30.164062 8.285156 C 30.164062 8.296875 30.175781 8.304688 30.175781 8.3125 C 30.175781 8.304688 30.164062 8.296875 30.164062 8.285156 Z M 30.175781 8.320312 C 30.183594 8.328125 30.183594 8.335938 30.183594 8.347656 C 30.183594 8.335938 30.183594 8.328125 30.175781 8.320312 Z M 30.191406 8.355469 C 30.191406 8.355469 30.191406 8.363281 30.199219 8.371094 C 30.191406 8.363281 30.191406 8.355469 30.191406 8.355469 Z M 30.199219 8.378906 C 30.199219 8.386719 30.199219 8.386719 30.207031 8.394531 C 30.199219 8.386719 30.199219 8.386719 30.199219 8.378906 Z M 30.207031 8.40625 C 30.207031 8.414062 30.207031 8.421875 30.214844 8.421875 C 30.207031 8.421875 30.207031 8.414062 30.207031 8.40625 Z M 30.214844 8.429688 C 30.214844 8.4375 30.214844 8.445312 30.222656 8.457031 C 30.214844 8.445312 30.214844 8.4375 30.214844 8.429688 Z M 30.222656 8.464844 C 30.222656 8.472656 30.222656 8.472656 30.222656 8.480469 C 30.222656 8.472656 30.222656 8.472656 30.222656 8.464844 Z M 30.222656 8.488281 C 30.222656 8.496094 30.234375 8.496094 30.234375 8.503906 C 30.234375 8.496094 30.222656 8.496094 30.222656 8.488281 Z M 30.234375 8.515625 C 30.234375 8.523438 30.234375 8.523438 30.234375 8.53125 C 30.234375 8.523438 30.234375 8.523438 30.234375 8.515625 Z M 30.234375 8.539062 C 30.234375 8.539062 30.234375 8.546875 30.234375 8.554688 C 30.234375 8.546875 30.234375 8.539062 30.234375 8.539062 Z M 30.234375 8.554688 C 30.234375 8.566406 30.234375 8.574219 30.234375 8.582031 C 30.234375 8.574219 30.234375 8.566406 30.234375 8.554688 Z M 30.234375 8.582031 C 30.242188 8.589844 30.242188 8.597656 30.242188 8.597656 C 30.242188 8.597656 30.242188 8.589844 30.234375 8.582031 Z M 30.242188 8.605469 C 30.242188 8.613281 30.234375 8.613281 30.234375 8.625 C 30.234375 8.613281 30.242188 8.613281 30.242188 8.605469 Z M 30.234375 8.632812 L 30.234375 8.640625 Z M 30.234375 8.648438 C 30.234375 8.65625 30.234375 8.65625 30.234375 8.664062 C 30.234375 8.65625 30.234375 8.65625 30.234375 8.648438 Z M 30.234375 8.664062 C 30.234375 8.671875 30.234375 8.683594 30.234375 8.691406 C 30.234375 8.683594 30.234375 8.671875 30.234375 8.664062 Z M 30.234375 8.691406 C 30.222656 8.699219 30.222656 8.699219 30.222656 8.707031 C 30.222656 8.699219 30.222656 8.699219 30.234375 8.691406 Z M 30.222656 8.707031 C 30.222656 8.714844 30.222656 8.714844 30.222656 8.722656 C 30.222656 8.714844 30.222656 8.714844 30.222656 8.707031 Z M 30.222656 8.734375 C 30.214844 8.734375 30.214844 8.734375 30.214844 8.742188 C 30.214844 8.734375 30.214844 8.734375 30.222656 8.734375 Z M 30.214844 8.75 C 30.214844 8.75 30.214844 8.757812 30.207031 8.757812 C 30.214844 8.757812 30.214844 8.75 30.214844 8.75 Z M 30.207031 8.765625 L 30.207031 8.773438 Z M 30.199219 8.78125 L 30.199219 8.792969 Z M 30.199219 8.800781 C 30.191406 8.800781 30.191406 8.808594 30.191406 8.808594 C 30.191406 8.808594 30.191406 8.800781 30.199219 8.800781 Z M 30.191406 8.816406 C 30.183594 8.816406 30.183594 8.824219 30.183594 8.824219 C 30.183594 8.824219 30.183594 8.816406 30.191406 8.816406 Z M 30.183594 8.832031 C 30.175781 8.832031 30.175781 8.84375 30.175781 8.84375 C 30.175781 8.84375 30.175781 8.832031 30.183594 8.832031 Z M 30.175781 8.851562 C 30.164062 8.851562 30.164062 8.859375 30.164062 8.859375 C 30.164062 8.859375 30.164062 8.851562 30.175781 8.851562 Z M 30.164062 8.867188 C 30.15625 8.867188 30.15625 8.875 30.15625 8.875 C 30.15625 8.875 30.15625 8.867188 30.164062 8.867188 Z M 30.148438 8.882812 C 30.148438 8.882812 30.148438 8.882812 30.148438 8.890625 C 30.148438 8.882812 30.148438 8.882812 30.148438 8.882812 Z M 30.140625 8.890625 C 30.140625 8.902344 30.140625 8.902344 30.140625 8.902344 C 30.140625 8.902344 30.140625 8.902344 30.140625 8.890625 Z M 30.132812 8.910156 C 30.132812 8.910156 30.132812 8.917969 30.125 8.917969 C 30.132812 8.917969 30.132812 8.910156 30.132812 8.910156 Z M 30.125 8.925781 L 30.117188 8.933594 Z M 30.117188 8.941406 C 30.105469 8.941406 30.105469 8.941406 30.105469 8.953125 C 30.105469 8.941406 30.105469 8.941406 30.117188 8.941406 Z M 30.097656 8.949219 C 30.097656 8.960938 30.097656 8.960938 30.097656 8.960938 C 30.097656 8.960938 30.097656 8.960938 30.097656 8.949219 Z M 30.089844 8.96875 C 30.089844 8.96875 30.089844 8.976562 30.082031 8.976562 C 30.089844 8.976562 30.089844 8.96875 30.089844 8.96875 Z M 30.082031 8.984375 L 30.074219 8.992188 Z M 30.03125 9.042969 C 30.03125 9.050781 30.03125 9.050781 30.03125 9.050781 C 30.03125 9.050781 30.03125 9.050781 30.03125 9.042969 Z M 21.71875 13.433594 C 21.417969 13.113281 22.121094 12.414062 23.015625 13.3125 C 24.222656 14.523438 23.316406 13.699219 24.222656 14.070312 C 24.605469 14.230469 23.277344 15.304688 23.089844 14.703125 C 22.914062 14.148438 21.761719 15.625 21.84375 14.492188 C 21.859375 14.332031 23.183594 13.640625 21.71875 13.433594 Z M 21.71875 13.433594 " fill-opacity="1" fill-rule="evenodd"/></g><g fill="#ffffff" fill-opacity="1"><g transform="translate(53.085321, 28.121537)"><g><path d="M 7.796875 -6.78125 C 7.796875 -5.582031 7.507812 -4.710938 6.9375 -4.171875 C 6.375 -3.640625 5.460938 -3.375 4.203125 -3.375 L 2.640625 -3.375 L 2.640625 0 L 1.3125 0 L 1.3125 -9.953125 L 4.265625 -9.953125 C 5.503906 -9.953125 6.398438 -9.695312 6.953125 -9.1875 C 7.515625 -8.675781 7.796875 -7.875 7.796875 -6.78125 Z M 6.390625 -6.75 C 6.390625 -7.445312 6.21875 -7.953125 5.875 -8.265625 C 5.53125 -8.585938 4.941406 -8.75 4.109375 -8.75 L 2.640625 -8.75 L 2.640625 -4.578125 L 3.921875 -4.578125 C 4.617188 -4.578125 5.128906 -4.644531 5.453125 -4.78125 C 5.773438 -4.925781 6.007812 -5.148438 6.15625 -5.453125 C 6.3125 -5.753906 6.390625 -6.1875 6.390625 -6.75 Z M 6.390625 -6.75 "/></g></g></g><g fill="#ffffff" fill-opacity="1"><g transform="translate(61.581755, 28.121537)"><g><path d="M 7.484375 -3.75 C 7.484375 -2.445312 7.203125 -1.457031 6.640625 -0.78125 C 6.078125 -0.113281 5.253906 0.21875 4.171875 0.21875 C 3.085938 0.21875 2.257812 -0.109375 1.6875 -0.765625 C 1.125 -1.429688 0.84375 -2.425781 0.84375 -3.75 C 0.84375 -5.101562 1.128906 -6.109375 1.703125 -6.765625 C 2.273438 -7.429688 3.097656 -7.765625 4.171875 -7.765625 C 5.253906 -7.765625 6.078125 -7.425781 6.640625 -6.75 C 7.203125 -6.070312 7.484375 -5.070312 7.484375 -3.75 Z M 6.203125 -3.75 C 6.203125 -4.78125 6.03125 -5.523438 5.6875 -5.984375 C 5.351562 -6.453125 4.847656 -6.6875 4.171875 -6.6875 C 3.472656 -6.6875 2.957031 -6.453125 2.625 -5.984375 C 2.289062 -5.515625 2.125 -4.769531 2.125 -3.75 C 2.125 -2.769531 2.285156 -2.039062 2.609375 -1.5625 C 2.929688 -1.09375 3.453125 -0.859375 4.171875 -0.859375 C 4.859375 -0.859375 5.367188 -1.09375 5.703125 -1.5625 C 6.035156 -2.03125 6.203125 -2.757812 6.203125 -3.75 Z M 6.203125 -3.75 "/></g></g></g><g fill="#ffffff" fill-opacity="1"><g transform="translate(69.898491, 28.121537)"><g><path d="M 5.296875 -6.328125 C 5.160156 -6.378906 4.972656 -6.40625 4.734375 -6.40625 C 4.359375 -6.40625 4 -6.320312 3.65625 -6.15625 C 3.3125 -5.988281 2.910156 -5.675781 2.453125 -5.21875 L 2.453125 0 L 1.21875 0 L 1.21875 -7.546875 L 2.453125 -7.546875 L 2.453125 -6.328125 C 2.804688 -6.671875 3.171875 -6.976562 3.546875 -7.25 C 3.929688 -7.519531 4.359375 -7.65625 4.828125 -7.65625 C 5.128906 -7.65625 5.375 -7.609375 5.5625 -7.515625 Z M 5.296875 -6.328125 "/></g></g></g><g fill="#ffffff" fill-opacity="1"><g transform="translate(75.728114, 28.121537)"><g><path d="M 5 0 C 4.519531 0.144531 4.039062 0.21875 3.5625 0.21875 C 2.800781 0.21875 2.253906 0.0195312 1.921875 -0.375 C 1.585938 -0.78125 1.421875 -1.414062 1.421875 -2.28125 L 1.421875 -6.515625 L 0.34375 -6.515625 L 0.34375 -7.546875 L 1.421875 -7.546875 L 1.421875 -9.640625 L 2.65625 -9.640625 L 2.65625 -7.546875 L 4.5625 -7.546875 L 4.5625 -6.515625 L 2.65625 -6.515625 L 2.65625 -2.515625 C 2.65625 -1.910156 2.710938 -1.472656 2.828125 -1.203125 C 2.953125 -0.941406 3.226562 -0.8125 3.65625 -0.8125 C 4.019531 -0.8125 4.359375 -0.878906 4.671875 -1.015625 Z M 5 0 "/></g></g></g><g fill="#ffffff" fill-opacity="1"><g transform="translate(80.968307, 28.121537)"><g><path d="M 5.515625 0 L 5.515625 -0.9375 C 5.128906 -0.601562 4.738281 -0.328125 4.34375 -0.109375 C 3.957031 0.109375 3.519531 0.21875 3.03125 0.21875 C 2.3125 0.21875 1.753906 0 1.359375 -0.4375 C 0.972656 -0.875 0.78125 -1.4375 0.78125 -2.125 C 0.78125 -2.644531 0.878906 -3.070312 1.078125 -3.40625 C 1.285156 -3.75 1.582031 -4.019531 1.96875 -4.21875 C 2.351562 -4.425781 2.914062 -4.570312 3.65625 -4.65625 L 5.515625 -4.828125 L 5.515625 -5.1875 C 5.515625 -5.769531 5.351562 -6.164062 5.03125 -6.375 C 4.707031 -6.582031 4.257812 -6.6875 3.6875 -6.6875 C 3.175781 -6.6875 2.78125 -6.597656 2.5 -6.421875 C 2.226562 -6.242188 2.03125 -6.050781 1.90625 -5.84375 L 0.90625 -6.46875 C 1.132812 -6.882812 1.484375 -7.203125 1.953125 -7.421875 C 2.421875 -7.648438 3.007812 -7.765625 3.71875 -7.765625 C 4.800781 -7.765625 5.578125 -7.566406 6.046875 -7.171875 C 6.515625 -6.773438 6.75 -6.09375 6.75 -5.125 L 6.75 0 Z M 5.515625 -3.828125 L 4.296875 -3.71875 C 3.484375 -3.644531 2.90625 -3.484375 2.5625 -3.234375 C 2.226562 -2.984375 2.0625 -2.625 2.0625 -2.15625 C 2.0625 -1.695312 2.171875 -1.367188 2.390625 -1.171875 C 2.617188 -0.984375 2.960938 -0.890625 3.421875 -0.890625 C 3.609375 -0.890625 3.789062 -0.921875 3.96875 -0.984375 C 4.15625 -1.054688 4.335938 -1.144531 4.515625 -1.25 C 4.691406 -1.351562 4.863281 -1.46875 5.03125 -1.59375 C 5.195312 -1.726562 5.359375 -1.859375 5.515625 -1.984375 Z M 5.515625 -3.828125 "/></g></g></g><g fill="#ffffff" fill-opacity="1"><g transform="translate(88.87531, 28.121537)"><g><path d="M 4.859375 -9.59375 C 4.722656 -9.664062 4.546875 -9.726562 4.328125 -9.78125 C 4.117188 -9.832031 3.929688 -9.859375 3.765625 -9.859375 C 3.347656 -9.859375 3.054688 -9.75 2.890625 -9.53125 C 2.734375 -9.320312 2.65625 -8.90625 2.65625 -8.28125 L 2.65625 -7.546875 L 4.328125 -7.546875 L 4.328125 -6.515625 L 2.65625 -6.515625 L 2.65625 0 L 1.421875 0 L 1.421875 -6.515625 L 0.3125 -6.515625 L 0.3125 -7.546875 L 1.421875 -7.546875 L 1.421875 -8.28125 C 1.421875 -9.1875 1.59375 -9.851562 1.9375 -10.28125 C 2.28125 -10.71875 2.878906 -10.9375 3.734375 -10.9375 C 4.273438 -10.9375 4.765625 -10.84375 5.203125 -10.65625 Z M 4.859375 -9.59375 "/></g></g></g><g fill="#ffffff" fill-opacity="1"><g transform="translate(93.425437, 28.121537)"><g><path d="M 7.484375 -3.75 C 7.484375 -2.445312 7.203125 -1.457031 6.640625 -0.78125 C 6.078125 -0.113281 5.253906 0.21875 4.171875 0.21875 C 3.085938 0.21875 2.257812 -0.109375 1.6875 -0.765625 C 1.125 -1.429688 0.84375 -2.425781 0.84375 -3.75 C 0.84375 -5.101562 1.128906 -6.109375 1.703125 -6.765625 C 2.273438 -7.429688 3.097656 -7.765625 4.171875 -7.765625 C 5.253906 -7.765625 6.078125 -7.425781 6.640625 -6.75 C 7.203125 -6.070312 7.484375 -5.070312 7.484375 -3.75 Z M 6.203125 -3.75 C 6.203125 -4.78125 6.03125 -5.523438 5.6875 -5.984375 C 5.351562 -6.453125 4.847656 -6.6875 4.171875 -6.6875 C 3.472656 -6.6875 2.957031 -6.453125 2.625 -5.984375 C 2.289062 -5.515625 2.125 -4.769531 2.125 -3.75 C 2.125 -2.769531 2.285156 -2.039062 2.609375 -1.5625 C 2.929688 -1.09375 3.453125 -0.859375 4.171875 -0.859375 C 4.859375 -0.859375 5.367188 -1.09375 5.703125 -1.5625 C 6.035156 -2.03125 6.203125 -2.757812 6.203125 -3.75 Z M 6.203125 -3.75 "/></g></g></g><g fill="#ffffff" fill-opacity="1"><g transform="translate(101.742172, 28.121537)"><g><path d="M 1.28125 0 L 1.28125 -10.71875 L 2.515625 -10.71875 L 2.515625 0 Z M 1.28125 0 "/></g></g></g><g fill="#ffffff" fill-opacity="1"><g transform="translate(105.537534, 28.121537)"><g><path d="M 2.65625 -9.453125 C 2.65625 -9.171875 2.585938 -8.976562 2.453125 -8.875 C 2.328125 -8.769531 2.125 -8.71875 1.84375 -8.71875 C 1.539062 -8.71875 1.332031 -8.78125 1.21875 -8.90625 C 1.101562 -9.039062 1.046875 -9.222656 1.046875 -9.453125 C 1.046875 -9.710938 1.109375 -9.898438 1.234375 -10.015625 C 1.359375 -10.128906 1.5625 -10.1875 1.84375 -10.1875 C 2.132812 -10.1875 2.34375 -10.128906 2.46875 -10.015625 C 2.59375 -9.910156 2.65625 -9.722656 2.65625 -9.453125 Z M 1.21875 0 L 1.21875 -7.546875 L 2.453125 -7.546875 L 2.453125 0 Z M 1.21875 0 "/></g></g></g><g fill="#ffffff" fill-opacity="1"><g transform="translate(109.217884, 28.121537)"><g><path d="M 7.484375 -3.75 C 7.484375 -2.445312 7.203125 -1.457031 6.640625 -0.78125 C 6.078125 -0.113281 5.253906 0.21875 4.171875 0.21875 C 3.085938 0.21875 2.257812 -0.109375 1.6875 -0.765625 C 1.125 -1.429688 0.84375 -2.425781 0.84375 -3.75 C 0.84375 -5.101562 1.128906 -6.109375 1.703125 -6.765625 C 2.273438 -7.429688 3.097656 -7.765625 4.171875 -7.765625 C 5.253906 -7.765625 6.078125 -7.425781 6.640625 -6.75 C 7.203125 -6.070312 7.484375 -5.070312 7.484375 -3.75 Z M 6.203125 -3.75 C 6.203125 -4.78125 6.03125 -5.523438 5.6875 -5.984375 C 5.351562 -6.453125 4.847656 -6.6875 4.171875 -6.6875 C 3.472656 -6.6875 2.957031 -6.453125 2.625 -5.984375 C 2.289062 -5.515625 2.125 -4.769531 2.125 -3.75 C 2.125 -2.769531 2.285156 -2.039062 2.609375 -1.5625 C 2.929688 -1.09375 3.453125 -0.859375 4.171875 -0.859375 C 4.859375 -0.859375 5.367188 -1.09375 5.703125 -1.5625 C 6.035156 -2.03125 6.203125 -2.757812 6.203125 -3.75 Z M 6.203125 -3.75 "/></g></g></g><g fill="#ffffff" fill-opacity="1"><g transform="translate(117.53462, 28.121537)"><g/></g></g><g fill="#ffffff" fill-opacity="1"><g transform="translate(121.509692, 28.121537)"><g><path d="M 5.984375 0 L 5.984375 -0.75 C 5.691406 -0.476562 5.347656 -0.25 4.953125 -0.0625 C 4.554688 0.125 4.132812 0.21875 3.6875 0.21875 C 2.78125 0.21875 2.078125 -0.117188 1.578125 -0.796875 C 1.085938 -1.484375 0.84375 -2.457031 0.84375 -3.71875 C 0.84375 -4.945312 1.109375 -5.925781 1.640625 -6.65625 C 2.179688 -7.394531 2.925781 -7.765625 3.875 -7.765625 C 4.632812 -7.765625 5.335938 -7.484375 5.984375 -6.921875 L 5.984375 -10.71875 L 7.21875 -10.71875 L 7.21875 0 Z M 5.984375 -5.84375 C 5.328125 -6.382812 4.675781 -6.65625 4.03125 -6.65625 C 3.46875 -6.65625 3.007812 -6.421875 2.65625 -5.953125 C 2.300781 -5.484375 2.125 -4.742188 2.125 -3.734375 C 2.125 -1.835938 2.722656 -0.890625 3.921875 -0.890625 C 4.316406 -0.890625 4.691406 -0.984375 5.046875 -1.171875 C 5.398438 -1.367188 5.710938 -1.597656 5.984375 -1.859375 Z M 5.984375 -5.84375 "/></g></g></g><g fill="#ffffff" fill-opacity="1"><g transform="translate(129.948621, 28.121537)"><g><path d="M 2.125 -3.625 C 2.125 -2.625 2.289062 -1.910156 2.625 -1.484375 C 2.96875 -1.066406 3.519531 -0.859375 4.28125 -0.859375 C 4.613281 -0.859375 4.90625 -0.925781 5.15625 -1.0625 C 5.414062 -1.207031 5.660156 -1.4375 5.890625 -1.75 L 6.90625 -1.125 C 6.625 -0.6875 6.273438 -0.351562 5.859375 -0.125 C 5.453125 0.101562 4.894531 0.21875 4.1875 0.21875 C 3.0625 0.21875 2.222656 -0.101562 1.671875 -0.75 C 1.117188 -1.40625 0.84375 -2.394531 0.84375 -3.71875 C 0.84375 -5.09375 1.109375 -6.109375 1.640625 -6.765625 C 2.179688 -7.429688 3 -7.765625 4.09375 -7.765625 C 5.070312 -7.765625 5.804688 -7.484375 6.296875 -6.921875 C 6.785156 -6.359375 7.03125 -5.488281 7.03125 -4.3125 L 7.03125 -3.625 Z M 5.828125 -4.59375 C 5.816406 -5.269531 5.671875 -5.796875 5.390625 -6.171875 C 5.117188 -6.546875 4.671875 -6.734375 4.046875 -6.734375 C 3.460938 -6.734375 3.019531 -6.5625 2.71875 -6.21875 C 2.425781 -5.882812 2.234375 -5.34375 2.140625 -4.59375 Z M 5.828125 -4.59375 "/></g></g></g><g fill="#ffffff" fill-opacity="1"><g transform="translate(137.719054, 28.121537)"><g/></g></g><g fill="#ffffff" fill-opacity="1"><g transform="translate(141.694126, 28.121537)"><g><path d="M 8.453125 -4.984375 C 8.453125 -3.765625 8.289062 -2.796875 7.96875 -2.078125 C 7.65625 -1.359375 7.171875 -0.832031 6.515625 -0.5 C 5.867188 -0.164062 4.945312 0 3.75 0 L 1.21875 0 L 1.21875 -9.953125 L 3.734375 -9.953125 C 4.890625 -9.953125 5.800781 -9.785156 6.46875 -9.453125 C 7.144531 -9.117188 7.644531 -8.585938 7.96875 -7.859375 C 8.289062 -7.140625 8.453125 -6.179688 8.453125 -4.984375 Z M 7.046875 -5 C 7.046875 -5.945312 6.9375 -6.6875 6.71875 -7.21875 C 6.507812 -7.757812 6.160156 -8.148438 5.671875 -8.390625 C 5.191406 -8.628906 4.519531 -8.75 3.65625 -8.75 L 2.546875 -8.75 L 2.546875 -1.203125 L 3.65625 -1.203125 C 4.53125 -1.203125 5.203125 -1.320312 5.671875 -1.5625 C 6.148438 -1.8125 6.5 -2.203125 6.71875 -2.734375 C 6.9375 -3.273438 7.046875 -4.03125 7.046875 -5 Z M 7.046875 -5 "/></g></g></g><g fill="#ffffff" fill-opacity="1"><g transform="translate(150.981261, 28.121537)"><g><path d="M 2.125 -3.625 C 2.125 -2.625 2.289062 -1.910156 2.625 -1.484375 C 2.96875 -1.066406 3.519531 -0.859375 4.28125 -0.859375 C 4.613281 -0.859375 4.90625 -0.925781 5.15625 -1.0625 C 5.414062 -1.207031 5.660156 -1.4375 5.890625 -1.75 L 6.90625 -1.125 C 6.625 -0.6875 6.273438 -0.351562 5.859375 -0.125 C 5.453125 0.101562 4.894531 0.21875 4.1875 0.21875 C 3.0625 0.21875 2.222656 -0.101562 1.671875 -0.75 C 1.117188 -1.40625 0.84375 -2.394531 0.84375 -3.71875 C 0.84375 -5.09375 1.109375 -6.109375 1.640625 -6.765625 C 2.179688 -7.429688 3 -7.765625 4.09375 -7.765625 C 5.070312 -7.765625 5.804688 -7.484375 6.296875 -6.921875 C 6.785156 -6.359375 7.03125 -5.488281 7.03125 -4.3125 L 7.03125 -3.625 Z M 5.828125 -4.59375 C 5.816406 -5.269531 5.671875 -5.796875 5.390625 -6.171875 C 5.117188 -6.546875 4.671875 -6.734375 4.046875 -6.734375 C 3.460938 -6.734375 3.019531 -6.5625 2.71875 -6.21875 C 2.425781 -5.882812 2.234375 -5.34375 2.140625 -4.59375 Z M 5.828125 -4.59375 "/></g></g></g><g fill="#ffffff" fill-opacity="1"><g transform="translate(158.751694, 28.121537)"><g><path d="M 5.296875 -6.328125 C 5.160156 -6.378906 4.972656 -6.40625 4.734375 -6.40625 C 4.359375 -6.40625 4 -6.320312 3.65625 -6.15625 C 3.3125 -5.988281 2.910156 -5.675781 2.453125 -5.21875 L 2.453125 0 L 1.21875 0 L 1.21875 -7.546875 L 2.453125 -7.546875 L 2.453125 -6.328125 C 2.804688 -6.671875 3.171875 -6.976562 3.546875 -7.25 C 3.929688 -7.519531 4.359375 -7.65625 4.828125 -7.65625 C 5.128906 -7.65625 5.375 -7.609375 5.5625 -7.515625 Z M 5.296875 -6.328125 "/></g></g></g><g fill="#ffffff" fill-opacity="1"><g transform="translate(164.581318, 28.121537)"><g><path d="M 5.984375 2.84375 L 5.984375 -0.75 C 5.691406 -0.476562 5.347656 -0.25 4.953125 -0.0625 C 4.554688 0.125 4.132812 0.21875 3.6875 0.21875 C 2.769531 0.21875 2.066406 -0.113281 1.578125 -0.78125 C 1.085938 -1.445312 0.84375 -2.425781 0.84375 -3.71875 C 0.84375 -4.988281 1.097656 -5.976562 1.609375 -6.6875 C 2.128906 -7.40625 2.859375 -7.765625 3.796875 -7.765625 C 4.203125 -7.765625 4.59375 -7.679688 4.96875 -7.515625 C 5.351562 -7.359375 5.691406 -7.160156 5.984375 -6.921875 L 5.984375 -7.546875 L 7.21875 -7.546875 L 7.21875 2.84375 Z M 5.984375 -5.84375 C 5.703125 -6.070312 5.382812 -6.265625 5.03125 -6.421875 C 4.675781 -6.578125 4.328125 -6.65625 3.984375 -6.65625 C 3.421875 -6.65625 2.96875 -6.421875 2.625 -5.953125 C 2.289062 -5.484375 2.125 -4.742188 2.125 -3.734375 C 2.125 -2.734375 2.273438 -2.007812 2.578125 -1.5625 C 2.878906 -1.113281 3.328125 -0.890625 3.921875 -0.890625 C 4.597656 -0.890625 5.285156 -1.210938 5.984375 -1.859375 Z M 5.984375 -5.84375 "/></g></g></g><g fill="#ffffff" fill-opacity="1"><g transform="translate(173.020247, 28.121537)"><g><path d="M 5.90625 0 L 5.90625 -1.125 C 5.519531 -0.738281 5.097656 -0.414062 4.640625 -0.15625 C 4.179688 0.09375 3.726562 0.21875 3.28125 0.21875 C 2.78125 0.21875 2.375 0.125 2.0625 -0.0625 C 1.75 -0.25 1.519531 -0.53125 1.375 -0.90625 C 1.238281 -1.289062 1.171875 -1.820312 1.171875 -2.5 L 1.171875 -7.546875 L 2.40625 -7.546875 L 2.40625 -3.09375 C 2.40625 -2.375 2.441406 -1.894531 2.515625 -1.65625 C 2.585938 -1.414062 2.703125 -1.238281 2.859375 -1.125 C 3.023438 -1.019531 3.265625 -0.96875 3.578125 -0.96875 C 3.890625 -0.96875 4.253906 -1.085938 4.671875 -1.328125 C 5.097656 -1.578125 5.507812 -1.867188 5.90625 -2.203125 L 5.90625 -7.546875 L 7.140625 -7.546875 L 7.140625 0 Z M 5.90625 0 "/></g></g></g><g fill="#ffffff" fill-opacity="1"><g transform="translate(181.380111, 28.121537)"><g><path d="M 2.65625 -9.453125 C 2.65625 -9.171875 2.585938 -8.976562 2.453125 -8.875 C 2.328125 -8.769531 2.125 -8.71875 1.84375 -8.71875 C 1.539062 -8.71875 1.332031 -8.78125 1.21875 -8.90625 C 1.101562 -9.039062 1.046875 -9.222656 1.046875 -9.453125 C 1.046875 -9.710938 1.109375 -9.898438 1.234375 -10.015625 C 1.359375 -10.128906 1.5625 -10.1875 1.84375 -10.1875 C 2.132812 -10.1875 2.34375 -10.128906 2.46875 -10.015625 C 2.59375 -9.910156 2.65625 -9.722656 2.65625 -9.453125 Z M 1.21875 0 L 1.21875 -7.546875 L 2.453125 -7.546875 L 2.453125 0 Z M 1.21875 0 "/></g></g></g></svg>